<svg xmlns="http://www.w3.org/2000/svg" viewBox="0 0 64 64"><rect width="64" height="64" rx="14.1" fill="#f2ece3"/><path transform="translate(15.76 50.67) scale(0.05326 -0.05326)" d="M325 11Q375 11 413.5 38.0Q452 65 452.0 119.5Q452 174 410.5 203.0Q369 232 292.5 253.5Q216 275 181.5 291.0Q147 307 116 333Q54 385 54 494Q54 583 117.5 647.0Q181 711 291 711Q344 711 401.5 695.5Q459 680 473.0 680.0Q487 680 498 700H509L516 498H500Q452 585 399.5 637.5Q347 690 285.5 690.0Q224 690 190.0 661.5Q156 633 156.0 585.5Q156 538 196.5 512.5Q237 487 296.0 471.0Q355 455 373.5 449.0Q392 443 419.5 432.5Q447 422 464.5 410.5Q482 399 501.5 381.5Q521 364 532 343Q559 295 559 229Q559 121 491.5 55.5Q424 -10 314 -10Q257 -10 183.5 5.0Q110 20 102 20Q88 20 75 -10H61L51 228H68Q112 141 180.5 76.0Q249 11 325 11Z" fill="#3f3112"/></svg>